<svg width="17" height="16" viewBox="0 0 17 16" fill="none" xmlns="http://www.w3.org/2000/svg">
<path d="M16.32 7.21316L9.32 0.21316C9.12708 0.0255955 8.84874 -0.0447978 8.58985 0.0284966C8.33095 0.101791 8.13082 0.307638 8.06485 0.568497C7.99887 0.829355 8.07708 1.1056 8.27 1.29316L13.98 6.99316H0.75C0.335786 6.99316 0 7.32895 0 7.74316C0 8.15737 0.335786 8.49316 0.75 8.49316H13.97L8.27 14.1932C8.12705 14.3324 8.04643 14.5236 8.04643 14.7232C8.04643 14.9227 8.12705 15.1139 8.27 15.2532C8.40784 15.3978 8.60025 15.4777 8.8 15.4732C8.99907 15.4741 9.19012 15.3948 9.33 15.2532L16.33 8.25316C16.6225 7.96034 16.6225 7.48598 16.33 7.19316L16.32 7.21316Z" fill="#48AF65"/>
</svg>
