<svg width="246" height="51" viewBox="0 0 246 51" fill="none" xmlns="http://www.w3.org/2000/svg">
<path d="M19.1244 16.6963C19.1244 17.2178 19.0919 17.7611 19.0268 18.326H6.43982C6.52656 19.456 6.88433 20.3252 7.51314 20.9337C8.16363 21.5204 8.95506 21.8137 9.88743 21.8137C11.2751 21.8137 12.24 21.227 12.7821 20.0536H18.7016C18.398 21.2488 17.8451 22.3244 17.0428 23.2805C16.2623 24.2367 15.2757 24.9864 14.0831 25.5296C12.8905 26.0729 11.557 26.3445 10.0826 26.3445C8.30457 26.3445 6.7217 25.9642 5.33399 25.2037C3.94627 24.4431 2.86212 23.3566 2.08153 21.9441C1.30094 20.5317 0.910645 18.8802 0.910645 16.9896C0.910645 15.0991 1.2901 13.4476 2.04901 12.0351C2.8296 10.6227 3.91375 9.53616 5.30146 8.7756C6.68918 8.01504 8.28289 7.63477 10.0826 7.63477C11.8389 7.63477 13.4001 8.00418 14.7661 8.74301C16.1322 9.48184 17.1946 10.5358 17.9535 11.9048C18.7341 13.2738 19.1244 14.8709 19.1244 16.6963ZM13.4326 15.2295C13.4326 14.2734 13.1074 13.5128 12.4569 12.9478C11.8064 12.3828 10.9933 12.1003 10.0175 12.1003C9.08516 12.1003 8.29373 12.372 7.64323 12.9152C7.01443 13.4585 6.62413 14.2299 6.47235 15.2295H13.4326ZM33.1169 7.69996C35.2417 7.69996 36.933 8.39532 38.1906 9.78606C39.4699 11.1551 40.1095 13.0456 40.1095 15.4576V26.0837H34.5804V16.2073C34.5804 14.9904 34.266 14.0452 33.6373 13.3715C33.0084 12.6979 32.1628 12.3611 31.1003 12.3611C30.0379 12.3611 29.1922 12.6979 28.5634 13.3715C27.9346 14.0452 27.6202 14.9904 27.6202 16.2073V26.0837H22.0585V7.89553H27.6202V10.3076C28.184 9.50357 28.9429 8.87339 29.8969 8.41705C30.851 7.93899 31.9243 7.69996 33.1169 7.69996Z" fill="#C7C4B3"/>
<path d="M52.2732 12.4106C53.0073 11.2629 54.0204 10.336 55.3122 9.62977C56.604 8.92353 58.1164 8.57042 59.8487 8.57042C61.8747 8.57042 63.71 9.08539 65.3542 10.1153C66.9983 11.1452 68.2905 12.6166 69.23 14.5293C70.199 16.442 70.6834 18.6637 70.6834 21.1943C70.6834 23.7249 70.199 25.9614 69.23 27.9035C68.2905 29.8161 66.9983 31.3023 65.3542 32.3616C63.71 33.3914 61.8747 33.9065 59.8487 33.9065C58.1456 33.9065 56.6335 33.5534 55.3122 32.8472C54.0204 32.1409 53.0073 31.2286 52.2732 30.1105V45.2945H44.7417V8.92353H52.2732V12.4106ZM63.0198 21.1943C63.0198 19.3109 62.4913 17.8397 61.4343 16.7804C60.4067 15.6916 59.1294 15.1472 57.6025 15.1472C56.105 15.1472 54.8277 15.6916 53.7707 16.7804C52.7431 17.8692 52.2291 19.3551 52.2291 21.2385C52.2291 23.1219 52.7431 24.6077 53.7707 25.6966C54.8277 26.7854 56.105 27.3297 57.6025 27.3297C59.1 27.3297 60.3772 26.7854 61.4343 25.6966C62.4913 24.5785 63.0198 23.0777 63.0198 21.1943ZM73.137 21.1943C73.137 18.6637 73.6069 16.442 74.5464 14.5293C75.5154 12.6166 76.8221 11.1452 78.4663 10.1153C80.1108 9.08539 81.9458 8.57042 83.9718 8.57042C85.7044 8.57042 87.2164 8.92353 88.5083 9.62977C89.8296 10.336 90.8426 11.2629 91.5473 12.4106V8.92353H99.0788V33.5534H91.5473V30.0664C90.8135 31.214 89.7855 32.1409 88.4642 32.8472C87.1724 33.5534 85.6603 33.9065 83.9277 33.9065C81.9312 33.9065 80.1108 33.3914 78.4663 32.3616C76.8221 31.3023 75.5154 29.8161 74.5464 27.9035C73.6069 25.9614 73.137 23.7249 73.137 21.1943ZM91.5473 21.2385C91.5473 19.3551 91.0188 17.8692 89.9617 16.7804C88.9342 15.6916 87.6714 15.1472 86.174 15.1472C84.6765 15.1472 83.3992 15.6916 82.3422 16.7804C81.3146 17.8397 80.8006 19.3109 80.8006 21.1943C80.8006 23.0777 81.3146 24.5785 82.3422 25.6966C83.3992 26.7854 84.6765 27.3297 86.174 27.3297C87.6714 27.3297 88.9342 26.7854 89.9617 25.6966C91.0188 24.6077 91.5473 23.1219 91.5473 21.2385ZM112.059 0.890137V33.5534H104.528V0.890137H112.059ZM116.02 21.1943C116.02 18.6637 116.489 16.442 117.429 14.5293C118.398 12.6166 119.704 11.1452 121.349 10.1153C122.993 9.08539 124.828 8.57042 126.854 8.57042C128.587 8.57042 130.099 8.92353 131.391 9.62977C132.712 10.336 133.725 11.2629 134.43 12.4106V8.92353H141.961V33.5534H134.43V30.0664C133.696 31.214 132.668 32.1409 131.347 32.8472C130.055 33.5534 128.543 33.9065 126.81 33.9065C124.814 33.9065 122.993 33.3914 121.349 32.3616C119.704 31.3023 118.398 29.8161 117.429 27.9035C116.489 25.9614 116.02 23.7249 116.02 21.1943ZM134.43 21.2385C134.43 19.3551 133.901 17.8692 132.844 16.7804C131.816 15.6916 130.554 15.1472 129.057 15.1472C127.559 15.1472 126.282 15.6916 125.225 16.7804C124.197 17.8397 123.683 19.3109 123.683 21.1943C123.683 23.0777 124.197 24.5785 125.225 25.6966C126.282 26.7854 127.559 27.3297 129.057 27.3297C130.554 27.3297 131.816 26.7854 132.844 25.6966C133.901 24.6077 134.43 23.1219 134.43 21.2385ZM154.941 12.4106C155.646 11.2629 156.659 10.336 157.98 9.62977C159.302 8.92353 160.814 8.57042 162.517 8.57042C164.543 8.57042 166.378 9.08539 168.022 10.1153C169.667 11.1452 170.959 12.6166 171.898 14.5293C172.867 16.442 173.352 18.6637 173.352 21.1943C173.352 23.7249 172.867 25.9614 171.898 27.9035C170.959 29.8161 169.667 31.3023 168.022 32.3616C166.378 33.3914 164.543 33.9065 162.517 33.9065C160.785 33.9065 159.272 33.568 157.98 32.8913C156.689 32.1851 155.676 31.2581 154.941 30.1105V33.5534H147.41V0.890137H154.941V12.4106ZM165.688 21.1943C165.688 19.3109 165.16 17.8397 164.103 16.7804C163.075 15.6916 161.798 15.1472 160.271 15.1472C158.773 15.1472 157.496 15.6916 156.439 16.7804C155.411 17.8692 154.897 19.3551 154.897 21.2385C154.897 23.1219 155.411 24.6077 156.439 25.6966C157.496 26.7854 158.773 27.3297 160.271 27.3297C161.768 27.3297 163.045 26.7854 164.103 25.6966C165.16 24.5785 165.688 23.0777 165.688 21.1943ZM184.835 13.0285C185.715 11.6749 186.817 10.6155 188.138 9.85046C189.459 9.05595 190.927 8.6587 192.542 8.6587V16.648H190.472C188.593 16.648 187.183 17.0599 186.244 17.8839C185.304 18.6784 184.835 20.0908 184.835 22.1213V33.5534H177.303V8.92353H184.835V13.0285ZM194.644 21.1943C194.644 18.6637 195.114 16.442 196.054 14.5293C197.023 12.6166 198.33 11.1452 199.974 10.1153C201.618 9.08539 203.453 8.57042 205.479 8.57042C207.212 8.57042 208.724 8.92353 210.016 9.62977C211.337 10.336 212.35 11.2629 213.055 12.4106V8.92353H220.586V33.5534H213.055V30.0664C212.321 31.214 211.293 32.1409 209.972 32.8472C208.68 33.5534 207.167 33.9065 205.435 33.9065C203.439 33.9065 201.618 33.3914 199.974 32.3616C198.33 31.3023 197.023 29.8161 196.054 27.9035C195.114 25.9614 194.644 23.7249 194.644 21.1943ZM213.055 21.2385C213.055 19.3551 212.526 17.8692 211.469 16.7804C210.442 15.6916 209.179 15.1472 207.681 15.1472C206.184 15.1472 204.907 15.6916 203.85 16.7804C202.822 17.8397 202.308 19.3109 202.308 21.1943C202.308 23.0777 202.822 24.5785 203.85 25.6966C204.907 26.7854 206.184 27.3297 207.681 27.3297C209.179 27.3297 210.442 26.7854 211.469 25.6966C212.526 24.6077 213.055 23.1219 213.055 21.2385ZM236.033 33.9065C233.889 33.9065 231.981 33.5388 230.307 32.803C228.633 32.0672 227.312 31.067 226.343 29.8015C225.374 28.5069 224.831 27.0649 224.713 25.4759H232.157C232.245 26.3291 232.641 27.0207 233.346 27.5504C234.051 28.0801 234.917 28.3449 235.945 28.3449C236.884 28.3449 237.604 28.1684 238.103 27.8153C238.631 27.4326 238.896 26.9471 238.896 26.3586C238.896 25.6524 238.529 25.1373 237.794 24.8138C237.061 24.4607 235.871 24.078 234.227 23.6661C232.465 23.2543 230.997 22.8275 229.823 22.3861C228.648 21.9152 227.635 21.1943 226.784 20.2233C225.932 19.2226 225.506 17.8839 225.506 16.2066C225.506 14.7941 225.888 13.514 226.651 12.3664C227.444 11.1894 228.589 10.2624 230.087 9.58563C231.614 8.90883 233.42 8.57042 235.504 8.57042C238.587 8.57042 241.01 9.33549 242.771 10.8657C244.563 12.3959 245.59 14.4263 245.854 16.9569H238.896C238.778 16.1036 238.396 15.4267 237.75 14.9265C237.134 14.4263 236.312 14.1761 235.284 14.1761C234.403 14.1761 233.728 14.3527 233.258 14.7058C232.788 15.0295 232.553 15.4856 232.553 16.0741C232.553 16.7804 232.92 17.31 233.654 17.6632C234.418 18.0163 235.592 18.3694 237.178 18.7225C238.999 19.1934 240.481 19.664 241.626 20.135C242.771 20.5764 243.77 21.3121 244.621 22.342C245.502 23.3426 245.957 24.6959 245.987 26.4028C245.987 27.8448 245.576 29.1394 244.753 30.2871C243.961 31.4052 242.801 32.2879 241.274 32.9354C239.776 33.5829 238.03 33.9065 236.033 33.9065Z" fill="#C7C4B3"/>
<path d="M42.0109 27.7815H0V31.5164H42.0109V27.7815Z" fill="#C7C4B3"/>
<path d="M64.4088 39.9979C65.6261 39.9979 66.595 40.3962 67.3156 41.193C68.0485 41.9774 68.415 43.0605 68.415 44.4424V50.5303H65.2473V44.8719C65.2473 44.1748 65.067 43.6333 64.7069 43.2472C64.3468 42.8612 63.8623 42.6683 63.2535 42.6683C62.6446 42.6683 62.1602 42.8612 61.8 43.2472C61.4399 43.6333 61.2596 44.1748 61.2596 44.8719V50.5303H58.0732V40.1099H61.2596V41.4918C61.5825 41.0311 62.0175 40.6702 62.564 40.4087C63.1105 40.1347 63.7254 39.9979 64.4088 39.9979ZM80.4308 45.152C80.4308 45.4508 80.4122 45.7622 80.3749 46.0857H73.1636C73.2131 46.7332 73.4181 47.231 73.7786 47.5797C74.1512 47.9158 74.6045 48.0839 75.1388 48.0839C75.9336 48.0839 76.4866 47.7478 76.7972 47.0755H80.1886C80.0145 47.7603 79.6977 48.3766 79.2383 48.9243C78.7911 49.4719 78.2256 49.9014 77.5426 50.2128C76.8592 50.5241 76.0952 50.6796 75.2506 50.6796C74.2319 50.6796 73.3249 50.4617 72.5301 50.026C71.7349 49.5904 71.1139 48.9677 70.6667 48.1586C70.2195 47.3495 69.9959 46.4032 69.9959 45.3201C69.9959 44.237 70.213 43.2907 70.6481 42.4816C71.0953 41.6725 71.7163 41.0498 72.5114 40.6141C73.3063 40.1785 74.2193 39.9605 75.2506 39.9605C76.2569 39.9605 77.1513 40.1721 77.9339 40.5955C78.7165 41.0189 79.325 41.6226 79.76 42.4069C80.2072 43.1912 80.4308 44.1063 80.4308 45.152ZM77.1699 44.3117C77.1699 43.764 76.9836 43.328 76.6109 43.0045C76.2382 42.6809 75.7724 42.5189 75.2134 42.5189C74.6791 42.5189 74.2258 42.6744 73.8531 42.9858C73.4926 43.2971 73.269 43.7389 73.1823 44.3117H77.1699ZM88.503 39.9979C89.6956 39.9979 90.652 40.3962 91.3727 41.193C92.0933 41.9774 92.4534 43.0605 92.4534 44.4424V50.5303H89.2857V44.8719C89.2857 44.1748 89.1054 43.6333 88.7453 43.2472C88.3851 42.8612 87.9007 42.6683 87.2918 42.6683C86.683 42.6683 86.1985 42.8612 85.8384 43.2472C85.4783 43.6333 85.298 44.1748 85.298 44.8719V50.5303H82.1116V36.7112H85.298V41.5105C85.6209 41.0498 86.062 40.6827 86.621 40.4087C87.18 40.1347 87.8075 39.9979 88.503 39.9979ZM104.935 40.1099V50.5303H101.749V49.111C101.425 49.5717 100.985 49.9452 100.426 50.2315C99.8789 50.5055 99.2704 50.6423 98.5996 50.6423C97.8044 50.6423 97.1024 50.4681 96.4939 50.1194C95.8851 49.7585 95.4132 49.2417 95.0778 48.5694C94.7423 47.8972 94.5746 47.1067 94.5746 46.1978V40.1099H97.7424V45.7683C97.7424 46.4653 97.9223 47.0069 98.2828 47.3929C98.6429 47.779 99.1274 47.9719 99.7362 47.9719C100.357 47.9719 100.848 47.779 101.208 47.3929C101.568 47.0069 101.749 46.4653 101.749 45.7683V40.1099H104.935ZM117.025 45.152C117.025 45.4508 117.006 45.7622 116.969 46.0857H109.758C109.808 46.7332 110.013 47.231 110.373 47.5797C110.745 47.9158 111.199 48.0839 111.733 48.0839C112.528 48.0839 113.081 47.7478 113.391 47.0755H116.783C116.609 47.7603 116.292 48.3766 115.833 48.9243C115.385 49.4719 114.82 49.9014 114.137 50.2128C113.454 50.5241 112.69 50.6796 111.845 50.6796C110.826 50.6796 109.919 50.4617 109.124 50.026C108.329 49.5904 107.708 48.9677 107.261 48.1586C106.814 47.3495 106.59 46.4032 106.59 45.3201C106.59 44.237 106.808 43.2907 107.242 42.4816C107.69 41.6725 108.311 41.0498 109.106 40.6141C109.901 40.1785 110.814 39.9605 111.845 39.9605C112.851 39.9605 113.746 40.1721 114.528 40.5955C115.311 41.0189 115.92 41.6226 116.354 42.4069C116.801 43.1912 117.025 44.1063 117.025 45.152ZM113.764 44.3117C113.764 43.764 113.578 43.328 113.205 43.0045C112.832 42.6809 112.367 42.5189 111.808 42.5189C111.274 42.5189 110.82 42.6744 110.447 42.9858C110.087 43.2971 109.864 43.7389 109.776 44.3117H113.764ZM125.042 39.9979C126.259 39.9979 127.228 40.3962 127.949 41.193C128.681 41.9774 129.048 43.0605 129.048 44.4424V50.5303H125.88V44.8719C125.88 44.1748 125.7 43.6333 125.34 43.2472C124.98 42.8612 124.495 42.6683 123.886 42.6683C123.278 42.6683 122.793 42.8612 122.433 43.2472C122.073 43.6333 121.893 44.1748 121.893 44.8719V50.5303H118.706V40.1099H121.893V41.4918C122.215 41.0311 122.65 40.6702 123.197 40.4087C123.743 40.1347 124.358 39.9979 125.042 39.9979ZM137.598 39.9979C138.815 39.9979 139.784 40.3962 140.504 41.193C141.238 41.9774 141.604 43.0605 141.604 44.4424V50.5303H138.436V44.8719C138.436 44.1748 138.256 43.6333 137.896 43.2472C137.536 42.8612 137.051 42.6683 136.442 42.6683C135.834 42.6683 135.349 42.8612 134.989 43.2472C134.629 43.6333 134.448 44.1748 134.448 44.8719V50.5303H131.262V40.1099H134.448V41.4918C134.772 41.0311 135.206 40.6702 135.753 40.4087C136.3 40.1347 136.915 39.9979 137.598 39.9979ZM148.495 47.5423L150.75 40.1099H154.141L150.452 50.5303H146.52L142.831 40.1099H146.241L148.495 47.5423Z" fill="#C7C4B3"/>
</svg>
