<svg width="732" height="215" viewBox="0 0 732 215" fill="none" xmlns="http://www.w3.org/2000/svg">
<path d="M56.448 93.352C56.448 94.888 56.352 96.488 56.16 98.152H19.008C19.264 101.48 20.32 104.04 22.176 105.832C24.096 107.56 26.432 108.424 29.184 108.424C33.28 108.424 36.128 106.696 37.728 103.24H55.2C54.304 106.76 52.672 109.928 50.304 112.744C48 115.56 45.088 117.768 41.568 119.368C38.048 120.968 34.112 121.768 29.76 121.768C24.512 121.768 19.84 120.648 15.744 118.408C11.648 116.168 8.448 112.968 6.144 108.808C3.84 104.648 2.688 99.784 2.688 94.216C2.688 88.648 3.808 83.784 6.048 79.624C8.352 75.464 11.552 72.264 15.648 70.024C19.744 67.784 24.448 66.664 29.76 66.664C34.944 66.664 39.552 67.752 43.584 69.928C47.616 72.104 50.752 75.208 52.992 79.24C55.296 83.272 56.448 87.976 56.448 93.352ZM39.648 89.032C39.648 86.216 38.688 83.976 36.768 82.312C34.848 80.648 32.448 79.816 29.568 79.816C26.816 79.816 24.48 80.616 22.56 82.216C20.704 83.816 19.552 86.088 19.104 89.032H39.648ZM97.7483 66.856C104.02 66.856 109.012 68.904 112.724 73C116.5 77.032 118.388 82.6 118.388 89.704V121H102.068V91.912C102.068 88.328 101.14 85.544 99.2843 83.56C97.4283 81.576 94.9323 80.584 91.7963 80.584C88.6603 80.584 86.1643 81.576 84.3083 83.56C82.4523 85.544 81.5243 88.328 81.5243 91.912V121H65.1083V67.432H81.5243V74.536C83.1883 72.168 85.4283 70.312 88.2443 68.968C91.0603 67.56 94.2283 66.856 97.7483 66.856Z" fill="white"/>
<path d="M154.29 80.73C156.457 77.35 159.447 74.62 163.26 72.54C167.073 70.46 171.537 69.42 176.65 69.42C182.63 69.42 188.047 70.9367 192.9 73.97C197.753 77.0033 201.567 81.3367 204.34 86.97C207.2 92.6033 208.63 99.1467 208.63 106.6C208.63 114.053 207.2 120.64 204.34 126.36C201.567 131.993 197.753 136.37 192.9 139.49C188.047 142.523 182.63 144.04 176.65 144.04C171.623 144.04 167.16 143 163.26 140.92C159.447 138.84 156.457 136.153 154.29 132.86V177.58H132.06V70.46H154.29V80.73ZM186.01 106.6C186.01 101.053 184.45 96.72 181.33 93.6C178.297 90.3933 174.527 88.79 170.02 88.79C165.6 88.79 161.83 90.3933 158.71 93.6C155.677 96.8067 154.16 101.183 154.16 106.73C154.16 112.277 155.677 116.653 158.71 119.86C161.83 123.067 165.6 124.67 170.02 124.67C174.44 124.67 178.21 123.067 181.33 119.86C184.45 116.567 186.01 112.147 186.01 106.6ZM215.872 106.6C215.872 99.1467 217.259 92.6033 220.032 86.97C222.892 81.3367 226.749 77.0033 231.602 73.97C236.456 70.9367 241.872 69.42 247.852 69.42C252.966 69.42 257.429 70.46 261.242 72.54C265.142 74.62 268.132 77.35 270.212 80.73V70.46H292.442V143H270.212V132.73C268.046 136.11 265.012 138.84 261.112 140.92C257.299 143 252.836 144.04 247.722 144.04C241.829 144.04 236.456 142.523 231.602 139.49C226.749 136.37 222.892 131.993 220.032 126.36C217.259 120.64 215.872 114.053 215.872 106.6ZM270.212 106.73C270.212 101.183 268.652 96.8067 265.532 93.6C262.499 90.3933 258.772 88.79 254.352 88.79C249.932 88.79 246.162 90.3933 243.042 93.6C240.009 96.72 238.492 101.053 238.492 106.6C238.492 112.147 240.009 116.567 243.042 119.86C246.162 123.067 249.932 124.67 254.352 124.67C258.772 124.67 262.499 123.067 265.532 119.86C268.652 116.653 270.212 112.277 270.212 106.73ZM330.755 46.8V143H308.525V46.8H330.755ZM342.445 106.6C342.445 99.1467 343.831 92.6033 346.605 86.97C349.465 81.3367 353.321 77.0033 358.175 73.97C363.028 70.9367 368.445 69.42 374.425 69.42C379.538 69.42 384.001 70.46 387.815 72.54C391.715 74.62 394.705 77.35 396.785 80.73V70.46H419.015V143H396.785V132.73C394.618 136.11 391.585 138.84 387.685 140.92C383.871 143 379.408 144.04 374.295 144.04C368.401 144.04 363.028 142.523 358.175 139.49C353.321 136.37 349.465 131.993 346.605 126.36C343.831 120.64 342.445 114.053 342.445 106.6ZM396.785 106.73C396.785 101.183 395.225 96.8067 392.105 93.6C389.071 90.3933 385.345 88.79 380.925 88.79C376.505 88.79 372.735 90.3933 369.615 93.6C366.581 96.72 365.065 101.053 365.065 106.6C365.065 112.147 366.581 116.567 369.615 119.86C372.735 123.067 376.505 124.67 380.925 124.67C385.345 124.67 389.071 123.067 392.105 119.86C395.225 116.653 396.785 112.277 396.785 106.73ZM457.327 80.73C459.407 77.35 462.397 74.62 466.297 72.54C470.197 70.46 474.66 69.42 479.687 69.42C485.667 69.42 491.084 70.9367 495.937 73.97C500.79 77.0033 504.604 81.3367 507.377 86.97C510.237 92.6033 511.667 99.1467 511.667 106.6C511.667 114.053 510.237 120.64 507.377 126.36C504.604 131.993 500.79 136.37 495.937 139.49C491.084 142.523 485.667 144.04 479.687 144.04C474.574 144.04 470.11 143.043 466.297 141.05C462.484 138.97 459.494 136.24 457.327 132.86V143H435.097V46.8H457.327V80.73ZM489.047 106.6C489.047 101.053 487.487 96.72 484.367 93.6C481.334 90.3933 477.564 88.79 473.057 88.79C468.637 88.79 464.867 90.3933 461.747 93.6C458.714 96.8067 457.197 101.183 457.197 106.73C457.197 112.277 458.714 116.653 461.747 119.86C464.867 123.067 468.637 124.67 473.057 124.67C477.477 124.67 481.247 123.067 484.367 119.86C487.487 116.567 489.047 112.147 489.047 106.6ZM545.56 82.55C548.16 78.5633 551.41 75.4433 555.31 73.19C559.21 70.85 563.543 69.68 568.31 69.68V93.21H562.2C556.653 93.21 552.493 94.4233 549.72 96.85C546.946 99.19 545.56 103.35 545.56 109.33V143H523.33V70.46H545.56V82.55ZM574.515 106.6C574.515 99.1467 575.902 92.6033 578.675 86.97C581.535 81.3367 585.392 77.0033 590.245 73.97C595.098 70.9367 600.515 69.42 606.495 69.42C611.608 69.42 616.072 70.46 619.885 72.54C623.785 74.62 626.775 77.35 628.855 80.73V70.46H651.085V143H628.855V132.73C626.688 136.11 623.655 138.84 619.755 140.92C615.942 143 611.478 144.04 606.365 144.04C600.472 144.04 595.098 142.523 590.245 139.49C585.392 136.37 581.535 131.993 578.675 126.36C575.902 120.64 574.515 114.053 574.515 106.6ZM628.855 106.73C628.855 101.183 627.295 96.8067 624.175 93.6C621.142 90.3933 617.415 88.79 612.995 88.79C608.575 88.79 604.805 90.3933 601.685 93.6C598.652 96.72 597.135 101.053 597.135 106.6C597.135 112.147 598.652 116.567 601.685 119.86C604.805 123.067 608.575 124.67 612.995 124.67C617.415 124.67 621.142 123.067 624.175 119.86C627.295 116.653 628.855 112.277 628.855 106.73ZM696.677 144.04C690.351 144.04 684.717 142.957 679.777 140.79C674.837 138.623 670.937 135.677 668.077 131.95C665.217 128.137 663.614 123.89 663.267 119.21H685.237C685.497 121.723 686.667 123.76 688.747 125.32C690.827 126.88 693.384 127.66 696.417 127.66C699.191 127.66 701.314 127.14 702.787 126.1C704.347 124.973 705.127 123.543 705.127 121.81C705.127 119.73 704.044 118.213 701.877 117.26C699.711 116.22 696.201 115.093 691.347 113.88C686.147 112.667 681.814 111.41 678.347 110.11C674.881 108.723 671.891 106.6 669.377 103.74C666.864 100.793 665.607 96.85 665.607 91.91C665.607 87.75 666.734 83.98 668.987 80.6C671.327 77.1333 674.707 74.4033 679.127 72.41C683.634 70.4167 688.964 69.42 695.117 69.42C704.217 69.42 711.367 71.6733 716.567 76.18C721.854 80.6867 724.887 86.6667 725.667 94.12H705.127C704.781 91.6067 703.654 89.6133 701.747 88.14C699.927 86.6667 697.501 85.93 694.467 85.93C691.867 85.93 689.874 86.45 688.487 87.49C687.101 88.4433 686.407 89.7867 686.407 91.52C686.407 93.6 687.491 95.16 689.657 96.2C691.911 97.24 695.377 98.28 700.057 99.32C705.431 100.707 709.807 102.093 713.187 103.48C716.567 104.78 719.514 106.947 722.027 109.98C724.627 112.927 725.971 116.913 726.057 121.94C726.057 126.187 724.844 130 722.417 133.38C720.077 136.673 716.654 139.273 712.147 141.18C707.727 143.087 702.571 144.04 696.677 144.04Z" fill="white"/>
<rect y="126" width="124" height="11" fill="white"/>
<path d="M190.11 161.98C193.703 161.98 196.563 163.153 198.69 165.5C200.853 167.81 201.935 171 201.935 175.07V193H192.585V176.335C192.585 174.282 192.053 172.687 190.99 171.55C189.927 170.413 188.497 169.845 186.7 169.845C184.903 169.845 183.473 170.413 182.41 171.55C181.347 172.687 180.815 174.282 180.815 176.335V193H171.41V162.31H180.815V166.38C181.768 165.023 183.052 163.96 184.665 163.19C186.278 162.383 188.093 161.98 190.11 161.98ZM237.401 177.16C237.401 178.04 237.346 178.957 237.236 179.91H215.951C216.097 181.817 216.702 183.283 217.766 184.31C218.866 185.3 220.204 185.795 221.781 185.795C224.127 185.795 225.759 184.805 226.676 182.825H236.686C236.172 184.842 235.237 186.657 233.881 188.27C232.561 189.883 230.892 191.148 228.876 192.065C226.859 192.982 224.604 193.44 222.111 193.44C219.104 193.44 216.427 192.798 214.081 191.515C211.734 190.232 209.901 188.398 208.581 186.015C207.261 183.632 206.601 180.845 206.601 177.655C206.601 174.465 207.242 171.678 208.526 169.295C209.846 166.912 211.679 165.078 214.026 163.795C216.372 162.512 219.067 161.87 222.111 161.87C225.081 161.87 227.721 162.493 230.031 163.74C232.341 164.987 234.137 166.765 235.421 169.075C236.741 171.385 237.401 174.08 237.401 177.16ZM227.776 174.685C227.776 173.072 227.226 171.788 226.126 170.835C225.026 169.882 223.651 169.405 222.001 169.405C220.424 169.405 219.086 169.863 217.986 170.78C216.922 171.697 216.262 172.998 216.006 174.685H227.776ZM261.227 161.98C264.747 161.98 267.57 163.153 269.697 165.5C271.824 167.81 272.887 171 272.887 175.07V193H263.537V176.335C263.537 174.282 263.005 172.687 261.942 171.55C260.879 170.413 259.449 169.845 257.652 169.845C255.855 169.845 254.425 170.413 253.362 171.55C252.299 172.687 251.767 174.282 251.767 176.335V193H242.362V152.3H251.767V166.435C252.72 165.078 254.022 163.997 255.672 163.19C257.322 162.383 259.174 161.98 261.227 161.98ZM309.728 162.31V193H300.323V188.82C299.369 190.177 298.068 191.277 296.418 192.12C294.804 192.927 293.008 193.33 291.028 193.33C288.681 193.33 286.609 192.817 284.813 191.79C283.016 190.727 281.623 189.205 280.633 187.225C279.643 185.245 279.148 182.917 279.148 180.24V162.31H288.498V178.975C288.498 181.028 289.029 182.623 290.093 183.76C291.156 184.897 292.586 185.465 294.383 185.465C296.216 185.465 297.664 184.897 298.728 183.76C299.791 182.623 300.323 181.028 300.323 178.975V162.31H309.728ZM345.413 177.16C345.413 178.04 345.358 178.957 345.248 179.91H323.963C324.11 181.817 324.715 183.283 325.778 184.31C326.878 185.3 328.217 185.795 329.793 185.795C332.14 185.795 333.772 184.805 334.688 182.825H344.698C344.185 184.842 343.25 186.657 341.893 188.27C340.573 189.883 338.905 191.148 336.888 192.065C334.872 192.982 332.617 193.44 330.123 193.44C327.117 193.44 324.44 192.798 322.093 191.515C319.747 190.232 317.913 188.398 316.593 186.015C315.273 183.632 314.613 180.845 314.613 177.655C314.613 174.465 315.255 171.678 316.538 169.295C317.858 166.912 319.692 165.078 322.038 163.795C324.385 162.512 327.08 161.87 330.123 161.87C333.093 161.87 335.733 162.493 338.043 163.74C340.353 164.987 342.15 166.765 343.433 169.075C344.753 171.385 345.413 174.08 345.413 177.16ZM335.788 174.685C335.788 173.072 335.238 171.788 334.138 170.835C333.038 169.882 331.663 169.405 330.013 169.405C328.437 169.405 327.098 169.863 325.998 170.78C324.935 171.697 324.275 172.998 324.018 174.685H335.788ZM369.075 161.98C372.668 161.98 375.528 163.153 377.655 165.5C379.818 167.81 380.9 171 380.9 175.07V193H371.55V176.335C371.55 174.282 371.018 172.687 369.955 171.55C368.892 170.413 367.462 169.845 365.665 169.845C363.868 169.845 362.438 170.413 361.375 171.55C360.312 172.687 359.78 174.282 359.78 176.335V193H350.375V162.31H359.78V166.38C360.733 165.023 362.017 163.96 363.63 163.19C365.243 162.383 367.058 161.98 369.075 161.98ZM406.135 161.98C409.729 161.98 412.589 163.153 414.715 165.5C416.879 167.81 417.96 171 417.96 175.07V193H408.61V176.335C408.61 174.282 408.079 172.687 407.015 171.55C405.952 170.413 404.522 169.845 402.725 169.845C400.929 169.845 399.499 170.413 398.435 171.55C397.372 172.687 396.84 174.282 396.84 176.335V193H387.435V162.31H396.84V166.38C397.794 165.023 399.077 163.96 400.69 163.19C402.304 162.383 404.119 161.98 406.135 161.98ZM438.301 184.2L444.956 162.31H454.966L444.076 193H432.471L421.581 162.31H431.646L438.301 184.2Z" fill="white"/>
</svg>
