<svg width="89" height="22" viewBox="0 0 89 22" fill="none" xmlns="http://www.w3.org/2000/svg">
<path d="M10.94 19H8.28V13.52C8.28 11.1467 7.53333 9.96 6.04 9.96C5.28 9.96 4.67333 10.2867 4.22 10.94C3.9 11.4067 3.74 12.3333 3.74 13.72V19H1.08V7.9H3.54V8.86C4.46 7.96667 5.47333 7.52 6.58 7.52C7.19333 7.52 7.80667 7.66 8.42 7.94C9.03333 8.22 9.53333 8.59333 9.92 9.06C10.6 9.88667 10.94 11.1467 10.94 12.84V19ZM24.2922 13.42C24.2922 15.1 23.7322 16.5133 22.6122 17.66C21.4922 18.7933 20.0922 19.36 18.4122 19.36C16.7855 19.36 15.3922 18.78 14.2322 17.62C13.0722 16.46 12.4922 15.0733 12.4922 13.46C12.4922 11.82 13.0655 10.42 14.2122 9.26C15.3722 8.1 16.7722 7.52 18.4122 7.52C20.0522 7.52 21.4389 8.09333 22.5722 9.24C23.7189 10.3867 24.2922 11.78 24.2922 13.42ZM21.6322 13.48C21.6322 12.56 21.3189 11.7467 20.6922 11.04C20.0789 10.32 19.3189 9.96 18.4122 9.96C17.4922 9.96 16.7189 10.3133 16.0922 11.02C15.4655 11.7267 15.1522 12.54 15.1522 13.46C15.1522 14.4067 15.4589 15.22 16.0722 15.9C16.6855 16.58 17.4655 16.92 18.4122 16.92C19.3322 16.92 20.0989 16.58 20.7122 15.9C21.3255 15.22 21.6322 14.4133 21.6322 13.48ZM48.2561 19H45.8161V17.62C45.3761 18.14 44.7894 18.56 44.0561 18.88C43.3361 19.2 42.6294 19.36 41.9361 19.36C40.3228 19.36 39.0161 18.7733 38.0161 17.6C37.0294 16.4267 36.5361 15.02 36.5361 13.38C36.5361 11.7533 37.0561 10.3733 38.0961 9.24C39.1494 8.09333 40.4828 7.52 42.0961 7.52C43.3228 7.52 44.4161 7.96 45.3761 8.84C45.5761 9.04 45.7094 9.19333 45.7761 9.3H45.8161V7.9H48.2561V19ZM44.8361 15.9C45.4361 15.22 45.7361 14.3933 45.7361 13.42C45.7361 12.4467 45.4361 11.6267 44.8361 10.96C44.2361 10.2933 43.4561 9.96 42.4961 9.96C41.5361 9.96 40.7428 10.3067 40.1161 11C39.5028 11.6933 39.1961 12.5267 39.1961 13.5C39.1961 14.4467 39.5094 15.2533 40.1361 15.92C40.7761 16.5867 41.5628 16.92 42.4961 16.92C43.4561 16.92 44.2361 16.58 44.8361 15.9ZM55.1792 10.26H53.5792V19H50.9192V10.26H49.6192V7.9H50.9192V4.2H53.5792V7.9H55.1792V10.26ZM67.4553 19H65.0153V17.62C64.5753 18.14 63.9886 18.56 63.2553 18.88C62.5353 19.2 61.8286 19.36 61.1353 19.36C59.522 19.36 58.2153 18.7733 57.2153 17.6C56.2286 16.4267 55.7353 15.02 55.7353 13.38C55.7353 11.7533 56.2553 10.3733 57.2953 9.24C58.3486 8.09333 59.682 7.52 61.2953 7.52C62.522 7.52 63.6153 7.96 64.5753 8.84C64.7753 9.04 64.9086 9.19333 64.9753 9.3H65.0153V7.9H67.4553V19ZM64.0353 15.9C64.6353 15.22 64.9353 14.3933 64.9353 13.42C64.9353 12.4467 64.6353 11.6267 64.0353 10.96C63.4353 10.2933 62.6553 9.96 61.6953 9.96C60.7353 9.96 59.942 10.3067 59.3153 11C58.702 11.6933 58.3953 12.5267 58.3953 13.5C58.3953 14.4467 58.7086 15.2533 59.3353 15.92C59.9753 16.5867 60.762 16.92 61.6953 16.92C62.6553 16.92 63.4353 16.58 64.0353 15.9ZM76.8184 15.48C76.8184 16.5733 76.4451 17.4933 75.6984 18.24C74.9651 18.9867 74.0451 19.36 72.9384 19.36C72.2984 19.36 71.6784 19.24 71.0784 19C70.4784 18.7467 69.9918 18.38 69.6184 17.9C69.1384 17.3 68.8584 16.5 68.7784 15.5H71.4984C71.7118 16.4467 72.1984 16.92 72.9584 16.92C73.2918 16.92 73.5718 16.82 73.7984 16.62C74.0384 16.4067 74.1584 16.1333 74.1584 15.8C74.1584 15.5733 74.1051 15.38 73.9984 15.22C73.9184 15.1 73.7651 14.98 73.5384 14.86C73.3118 14.74 73.1051 14.6467 72.9184 14.58C72.7451 14.5133 72.4984 14.4267 72.1784 14.32C71.8718 14.2133 71.6984 14.1533 71.6584 14.14C70.0051 13.5533 69.1784 12.4933 69.1784 10.96C69.1784 9.97333 69.5451 9.15333 70.2784 8.5C71.0251 7.84667 71.8984 7.52 72.8984 7.52C73.8718 7.52 74.7051 7.84667 75.3984 8.5C76.1051 9.15333 76.4784 9.96 76.5184 10.92H73.9184C73.7851 10.28 73.4318 9.96 72.8584 9.96C72.5784 9.96 72.3384 10.0533 72.1384 10.24C71.9384 10.4133 71.8384 10.64 71.8384 10.92C71.8384 11.1067 71.8918 11.2667 71.9984 11.4C72.1051 11.52 72.2051 11.6067 72.2984 11.66C72.3918 11.7 72.5451 11.76 72.7584 11.84C72.9718 11.92 73.2918 12.0267 73.7184 12.16C74.7318 12.48 75.4984 12.88 76.0184 13.36C76.5518 13.8267 76.8184 14.5333 76.8184 15.48ZM88.627 19H85.267L81.507 13.8H81.467V19H78.807V4.2H81.467V13.12H81.507L85.047 7.9H88.107L84.107 13.34L88.627 19Z" fill="white"/>
<path d="M26.5 9.5L30.5 18L38 3" stroke="#48AF65" stroke-width="3" stroke-linecap="square" stroke-linejoin="round"/>
</svg>
