<svg width="265" height="344" viewBox="0 0 265 344" fill="none" xmlns="http://www.w3.org/2000/svg">
<path d="M65.9878 26.0781C61.6545 23.5781 54.5878 17.6781 60.9878 14.0781C64.3211 11.9114 69.6878 7.07811 64.4878 5.07811C60.9878 3.91145 53.4878 3.87812 51.4878 13.0781C50.3211 14.0781 48.1878 16.8781 48.9878 20.0781C47.3211 20.0781 44.4878 19.4781 46.4878 17.0781C47.1545 15.5781 47.8878 11.9781 45.4878 9.57811C44.4878 7.74478 42.7878 3.77811 43.9878 2.57811C43.6544 1.91144 42.5878 0.678111 40.9878 1.07811C38.9878 1.07811 35.4878 2.37811 37.4878 7.57811C38.3211 10.5781 39.4878 17.8781 37.4878 23.0781C37.3211 24.0781 36.4877 25.8781 34.4877 25.0781C30.1544 22.5781 20.8877 21.9781 18.4877 39.5781C18.4877 41.9114 17.3877 47.9781 12.9877 53.5781C11.4877 58.0781 9.38775 67.5781 12.9877 69.5781" stroke="black" stroke-width="2" stroke-linecap="round"/>
<path d="M18.4878 42.0781C22.9878 41.4115 31.8878 42.7781 31.4878 53.5781C32.9878 56.9115 34.6878 64.8781 29.4878 70.0781" stroke="black" stroke-width="2" stroke-linecap="round"/>
<path d="M85.4877 28.5781C87.4877 30.7448 90.9877 35.5781 88.9877 37.5781M88.9877 37.5781C84.8211 37.7448 77.4877 39.2781 81.4877 44.0781M88.9877 37.5781C88.9877 45.5781 83.9877 45.2448 81.4877 44.0781M81.4877 44.0781C82.1544 46.4115 83.0877 51.5781 81.4877 53.5781C83.8211 56.7448 88.2877 64.4781 87.4877 70.0781" stroke="black" stroke-width="2" stroke-linecap="round"/>
<path d="M67.9877 64.0781C66.821 60.4115 66.5877 51.8781 74.9877 47.0781C75.6544 47.9115 77.8877 50.3781 81.4877 53.5781" stroke="black" stroke-width="2" stroke-linecap="round"/>
<path d="M185.716 118.529C179.383 129.029 167.816 154.829 172.216 174.029C174.049 176.529 175.016 191.429 164.216 231.029C157.883 251.029 146.716 297.329 152.716 322.529C154.216 334.529 162.916 353.229 185.716 332.029C195.049 327.196 217.816 305.029 234.216 255.029C235.883 247.529 240.316 230.929 244.716 224.529C250.216 213.029 255.816 187.629 234.216 178.029C227.216 175.696 209.816 173.629 196.216 184.029C192.716 185.363 189.216 205.829 203.216 277.029" stroke="white" stroke-width="3" stroke-linecap="round"/>
<path d="M195.216 226.029C199.549 220.363 209.116 208.229 212.716 205.029" stroke="white" stroke-width="3" stroke-linecap="round"/>
<path d="M194.716 186.029C194.883 176.696 199.116 155.729 214.716 146.529C220.883 142.029 232.116 128.629 227.716 111.029C226.716 102.863 226.716 86.0292 226.716 84.0292C226.716 82.5292 226.216 81.5292 223.716 83.5292C221.216 86.5292 216.916 93.9292 219.716 121.529C210.383 122.029 190.116 127.529 183.716 145.529" stroke="white" stroke-width="3" stroke-linecap="round"/>
<path d="M228.216 111.029C230.049 108.029 233.816 99.9292 234.216 91.5292C233.216 85.5292 238.216 62.5292 240.716 67.0292C241.216 75.1959 241.916 92.8292 240.716 98.0292C239.549 101.696 239 110.8 235 116" stroke="white" stroke-width="3" stroke-linecap="round"/>
<path d="M241.716 85.0292C245.216 78.0292 253.816 64.0292 260.216 64.0292C261.549 63.8626 263.816 64.3292 262.216 67.5292C255.716 80.8626 239.416 111.529 228.216 125.529" stroke="white" stroke-width="3" stroke-linecap="round"/>
<path d="M80 119.5C86.3333 130 96.9503 154.829 92.5503 174.029C90.717 176.529 89.7503 191.429 100.55 231.029C106.884 251.029 118.05 297.329 112.05 322.529C110.55 334.529 101.85 353.229 79.0503 332.029C69.717 327.196 46.9503 305.029 30.5503 255.029C28.8836 247.529 24.4503 230.929 20.0503 224.529C14.5503 213.029 8.95029 187.629 30.5503 178.029C37.5503 175.696 54.9503 173.629 68.5503 184.029C72.0503 185.363 75.5503 205.829 61.5503 277.029" stroke="white" stroke-width="3" stroke-linecap="round"/>
<path d="M69.5503 226.029C65.217 220.363 55.6503 208.229 52.0503 205.029" stroke="white" stroke-width="3" stroke-linecap="round"/>
<path d="M70.0503 186.029C69.8836 176.696 65.6503 155.729 50.0503 146.529C43.8836 142.029 32.6503 128.629 37.0503 111.029C38.0503 102.863 38.0503 86.0292 38.0503 84.0292C38.0503 82.5292 38.5503 81.5292 41.0503 83.5292C43.5503 86.5292 47.8503 93.9292 45.0503 121.529C54.3836 122.029 74.6503 127.529 81.0503 145.529" stroke="white" stroke-width="3" stroke-linecap="round"/>
<path d="M36.5503 111.029C34.717 108.029 30.9503 99.9292 30.5503 91.5292C31.5503 85.5292 26.5503 62.5292 24.0503 67.0292C23.5503 75.1959 22.8503 92.8292 24.0503 98.0292C25.217 101.696 25.5 110.8 29.5 116" stroke="white" stroke-width="3" stroke-linecap="round"/>
<path d="M23.0503 85.0292C19.5503 78.0292 10.9503 64.0292 4.55032 64.0292C3.21699 63.8626 0.950323 64.3292 2.55032 67.5292C9.05032 80.8626 25.3503 111.529 36.5503 125.529" stroke="white" stroke-width="3" stroke-linecap="round"/>
<path d="M215 119C200.833 121.667 172.5 120.8 172.5 92C172.5 89.3333 171.8 83.3 169 80.5C169.833 79.5 172.4 77.5 176 77.5C173.667 73.8333 170 64.2 174 55C174.333 54.6667 175.2 54.9 176 58.5C176.8 62.1 179.333 63 180.5 63C182.167 62.3333 184.9 59.9 182.5 55.5C181.333 55.1667 180.4 49.8 186 31C186 36 186.3 46.1 187.5 46.5C188 46.8333 189.1 46.4 189.5 42C190.167 38.3333 191.5 29.4 191.5 23C196.167 26.1667 204.5 34.7 200.5 43.5C197.667 49.5 193 62 197 64C198.667 64.6667 202.9 63.5 206.5 53.5C206.833 51 207.2 45.9 206 45.5C207 46.1667 209.2 46.9 210 44.5C211.167 41.8333 214.3 36.1 217.5 34.5C218.5 34.1667 220.3 32.6 219.5 29C222.333 30.5 228 35.9 228 45.5C228 48.1667 227.2 55.4 224 63C227 61 233 55.2 233 48C235.5 49.3333 240 57.2 238 64" stroke="black" stroke-width="2" stroke-linecap="round"/>
<path d="M48.5 113C50.6667 119 54.7877 125.078 73.9877 121.078C78.8211 119.578 87.9877 114.678 85.9877 107.078C86.1544 103.911 87.1877 95.3781 89.9877 86.5781C90.9877 82.9115 91.8877 74.4781 87.4877 70.0781C83.9877 69.7448 76.2877 68.4781 73.4877 66.0781C70.6544 65.0781 64.7877 63.6781 63.9877 66.0781C63.2778 65.3682 62.1748 64.628 60.9877 64.4759M60.9877 64.4759C59.388 64.2709 57.6358 65.1339 56.4877 68.5781C53.9877 67.4115 48.5877 65.2781 46.9877 66.0781C44.6544 65.7448 40.1877 64.4781 40.9877 62.0781C44.3211 56.9115 50.3877 46.6781 47.9877 47.0781C46.3211 44.9115 43.7877 39.8781 46.9877 37.0781C54.8211 33.5781 71.8877 25.1781 77.4877 19.5781C80.4877 19.7448 86.1877 21.6781 84.9877 28.0781C75.1544 32.8433 56.5877 46.7941 60.9877 64.4759Z" stroke="black" stroke-width="2" stroke-linecap="round"/>
<path d="M63.9877 66.0781C65.9877 71.0781 71.5877 81.9781 77.9877 85.5781" stroke="black" stroke-width="2" stroke-linecap="round"/>
<path d="M69.9877 77.0781C67.4877 80.0781 61.2877 86.3781 56.4877 87.5781" stroke="black" stroke-width="2" stroke-linecap="round"/>
<path d="M65.9877 81.5781C66.3211 87.5781 65.8877 100.578 61.4877 104.578" stroke="black" stroke-width="2" stroke-linecap="round"/>
</svg>
