<svg width="231" height="304" viewBox="0 0 231 304" fill="none" xmlns="http://www.w3.org/2000/svg">
<path d="M120.88 287.5C130.547 285.167 151.68 276.4 158.88 260C161.714 255 170.68 243 183.88 235C190.38 230.333 205.68 214.3 214.88 187.5" stroke="black" stroke-width="3"/>
<path d="M154.88 145C157.143 145.181 162.11 146.847 169.38 151.343M226.38 164.5C223.58 168.1 212.88 171.667 207.88 173C200.68 174.2 194.547 171.167 192.38 169.5C183.243 160.91 175.496 155.125 169.38 151.343M169.38 151.343C180.047 152.062 200.48 151.1 196.88 141.5" stroke="black" stroke-width="3"/>
<path d="M157.88 43C154.68 35.4 147.547 37.1666 144.38 39C139.98 39 144.88 35 147.88 33C157.48 26.2 175.547 37.5 183.38 44C186.58 45.6 184.714 47.6667 183.38 48.5C169.78 55.3 160.714 47.6667 157.88 43Z" stroke="black" stroke-width="3"/>
<path d="M184.88 65C194.047 68.5 215.48 70.6 227.88 51C230.714 43.8333 231.58 26.9 212.38 16.5" stroke="black" stroke-width="3"/>
<path d="M20.3804 15C25.8804 32.3333 44.3804 58.8 74.3804 26M74.3804 26C79.547 18 93.4804 2 107.88 2C111.214 2.16667 116.68 4.4 111.88 12C110.214 14.5 103.48 19.7 89.8804 20.5C87.047 20.6667 79.9804 22 74.3804 26Z" stroke="white" stroke-width="3"/>
<path d="M141.88 11.5C129.38 19.6667 105.78 39 111.38 51C115.457 60.1719 121.652 75.8868 124.936 89M126.38 108.5C127.935 104.615 127.023 97.3325 124.936 89M124.936 89C123.918 94.1667 117.38 102.5 99.3805 94.5C96.8805 92.6667 88.5805 92.7 75.3805 107.5C72.7138 111 61.9805 121.7 40.3805 136.5C35.899 139.488 26.9544 145.599 19.3804 151.169M114.38 270.5C99.1804 277.7 76.3804 260.167 66.8804 250.5C46.8804 230.1 22.2138 208 12.3805 199.5C-6.41955 183.9 4.54712 164.333 12.3805 156.5C14.4051 154.88 16.8141 153.056 19.3804 151.169M19.3804 151.169C31.5471 153.946 58.8804 163.7 70.8804 180.5C74.3804 185.167 86.4804 197.6 106.88 210" stroke="white" stroke-width="3"/>
<path d="M4.88037 188.5C37.7137 209.333 108.48 249.9 128.88 237.5L138.88 227C138.38 221.333 130.78 205.7 104.38 188.5C96.7137 183 72.6804 165.2 37.8804 138" stroke="white" stroke-width="3"/>
<path d="M46.3804 132.5C66.8804 130.667 108.48 126.2 110.88 123L103.88 130C104.88 132.333 106.58 137.6 105.38 140C105.714 141 106.88 142.5 108.88 140.5L118.78 124M126.88 108C121.28 113.2 119.547 120.167 119.38 123L118.78 124M118.78 124C118.814 129.5 119.28 140.5 120.88 140.5C111.88 154.5 96.8804 184.2 108.88 191" stroke="white" stroke-width="3"/>
<path d="M135.88 302C115.38 288.333 91.5805 252.4 160.38 218C177.714 212.167 214.58 195.6 223.38 176C225.273 173.837 227.045 169.893 227.042 164.5M227.042 164.5C227.038 156.595 223.221 145.578 210.38 132.5C195.547 116.5 161.28 88.2 142.88 103C138.986 103 133.878 104.066 129.411 107M227.042 164.5C223.571 166.1 212.488 155.167 207.38 149.5C188.18 129.9 164.38 138.333 154.88 145C132.48 141 115.547 159.333 109.88 169C107.88 164.6 116.38 148.167 120.88 140.5C116.394 121.808 122.028 111.851 129.411 107M129.411 107L142.88 82.5C145.714 77.1667 147.38 63.6 131.38 52" stroke="black" stroke-width="3"/>
</svg>
